<svg><symbol id="credit-cards" width="40" height="40" viewBox="0 0 40 40" fill="none" xmlns="http://www.w3.org/2000/svg"><path d="M3.75 15.1332H36.25L36.2509 30C36.2509 30.3316 36.1192 30.6495 35.8848 30.8839C35.6504 31.1183 35.3324 31.25 35.0009 31.25H5.00092C4.66939 31.25 4.35145 31.1183 4.11703 30.8839C3.88261 30.6495 3.75092 30.3316 3.75092 30L3.75 15.1332Z" fill="#C3DDF8"></path><path d="M35 8.75H5C4.30964 8.75 3.75 9.30964 3.75 10V30C3.75 30.6904 4.30964 31.25 5 31.25H35C35.6904 31.25 36.25 30.6904 36.25 30V10C36.25 9.30964 35.6904 8.75 35 8.75Z" stroke="#0271E1" stroke-width="2" stroke-linecap="round" stroke-linejoin="round"></path><path d="M26.25 26.25H31.25" stroke="#0271E1" stroke-width="2" stroke-linecap="round" stroke-linejoin="round"></path><path d="M18.75 26.25H21.25" stroke="#0271E1" stroke-width="2" stroke-linecap="round" stroke-linejoin="round"></path><path d="M3.75 15.1332H36.25" stroke="#0271E1" stroke-width="2" stroke-linecap="round" stroke-linejoin="round"></path></symbol><symbol id="home-loans" width="40" height="40" viewBox="0 0 40 40" fill="none" xmlns="http://www.w3.org/2000/svg"><path d="M23.7452 33.7487V23.7487H16.2452V33.7487L6.24609 33.75V18.0529C6.24609 17.8787 6.28248 17.7065 6.35293 17.5472C6.42338 17.388 6.52632 17.2452 6.65517 17.128L19.1543 5.76323C19.3844 5.55402 19.6842 5.43809 19.9952 5.43808C20.3062 5.43807 20.606 5.55398 20.8361 5.76317L33.337 17.128C33.4658 17.2452 33.5688 17.388 33.6392 17.5473C33.7097 17.7065 33.7461 17.8788 33.7461 18.0529V33.75L23.7452 33.7487Z" fill="#C3DDF8"></path><path d="M33.7461 33.75V18.0529C33.7461 17.8788 33.7097 17.7065 33.6392 17.5473C33.5688 17.388 33.4658 17.2452 33.337 17.128L20.8361 5.76317C20.606 5.55398 20.3062 5.43807 19.9952 5.43808C19.6842 5.43809 19.3844 5.55402 19.1543 5.76323L6.65517 17.128C6.52632 17.2452 6.42338 17.388 6.35293 17.5472C6.28248 17.7065 6.24609 17.8787 6.24609 18.0529V33.75" stroke="#0271E1" stroke-width="2" stroke-linecap="round" stroke-linejoin="round"></path><path d="M2.49609 33.75H37.4961" stroke="#0271E1" stroke-width="2" stroke-linecap="round" stroke-linejoin="round"></path><path d="M23.7441 33.7486V24.9986C23.7441 24.6671 23.6124 24.3492 23.378 24.1147C23.1436 23.8803 22.8257 23.7486 22.4941 23.7486H17.4941C17.1626 23.7486 16.8447 23.8803 16.6103 24.1147C16.3758 24.3492 16.2441 24.6671 16.2441 24.9986V33.7486" stroke="#0271E1" stroke-width="2" stroke-linecap="round" stroke-linejoin="round"></path></symbol><symbol id="hotels" width="40" height="40" viewBox="0 0 40 40" fill="none" xmlns="http://www.w3.org/2000/svg"><path d="M23.7452 33.7487V23.7487H16.2452V33.7487L6.24609 33.75V18.0529C6.24609 17.8787 6.28248 17.7065 6.35293 17.5472C6.42338 17.388 6.52632 17.2452 6.65517 17.128L19.1543 5.76323C19.3844 5.55402 19.6842 5.43809 19.9952 5.43808C20.3062 5.43807 20.606 5.55398 20.8361 5.76317L33.337 17.128C33.4658 17.2452 33.5688 17.388 33.6392 17.5473C33.7097 17.7065 33.7461 17.8788 33.7461 18.0529V33.75L23.7452 33.7487Z" fill="#C3DDF8"></path><path d="M33.7461 33.75V18.0529C33.7461 17.8788 33.7097 17.7065 33.6392 17.5473C33.5688 17.388 33.4658 17.2452 33.337 17.128L20.8361 5.76317C20.606 5.55398 20.3062 5.43807 19.9952 5.43808C19.6842 5.43809 19.3844 5.55402 19.1543 5.76323L6.65517 17.128C6.52632 17.2452 6.42338 17.388 6.35293 17.5472C6.28248 17.7065 6.24609 17.8787 6.24609 18.0529V33.75" stroke="#0271E1" stroke-width="2" stroke-linecap="round" stroke-linejoin="round"></path><path d="M2.49609 33.75H37.4961" stroke="#0271E1" stroke-width="2" stroke-linecap="round" stroke-linejoin="round"></path><path d="M23.7441 33.7486V24.9986C23.7441 24.6671 23.6124 24.3492 23.378 24.1147C23.1436 23.8803 22.8257 23.7486 22.4941 23.7486H17.4941C17.1626 23.7486 16.8447 23.8803 16.6103 24.1147C16.3758 24.3492 16.2441 24.6671 16.2441 24.9986V33.7486" stroke="#0271E1" stroke-width="2" stroke-linecap="round" stroke-linejoin="round"></path></symbol><symbol id="health-insurance" width="40" height="40" viewBox="0 0 40 40" fill="none" xmlns="http://www.w3.org/2000/svg"><path d="M20 33.75C20 33.75 4.375 25 4.375 14.375C4.37532 12.4971 5.02602 10.6773 6.21648 9.22488C7.40693 7.77251 9.06366 6.77727 10.905 6.40836C12.7463 6.03945 14.6586 6.31965 16.3166 7.20131C17.9747 8.08298 19.2763 9.51169 20 11.2445L20 11.2446C20.7237 9.5117 22.0253 8.08299 23.6833 7.20132C25.3414 6.31965 27.2537 6.03945 29.095 6.40836C30.9363 6.77727 32.5931 7.77251 33.7835 9.22488C34.974 10.6773 35.6247 12.4971 35.625 14.375C35.625 25 20 33.75 20 33.75Z" fill="#C3DDF8"></path><path d="M5 20H11.25L13.75 16.25L18.75 23.75L21.25 20H25" stroke="#0271E1" stroke-width="2" stroke-linecap="round" stroke-linejoin="round"></path><path d="M4.39285 14.999C4.38103 14.7918 4.37508 14.5838 4.375 14.375C4.37532 12.4971 5.02602 10.6773 6.21648 9.22488C7.40693 7.77251 9.06366 6.77727 10.905 6.40836C12.7463 6.03945 14.6586 6.31965 16.3166 7.20131C17.9747 8.08298 19.2763 9.51169 20 11.2445L20 11.2446C20.7237 9.5117 22.0253 8.08299 23.6833 7.20132C25.3414 6.31965 27.2537 6.03945 29.095 6.40836C30.9363 6.77727 32.5931 7.77251 33.7835 9.22488C34.974 10.6773 35.6247 12.4971 35.625 14.375C35.625 25 20 33.75 20 33.75C20 33.75 13.7586 30.2549 9.16523 25.0002" stroke="#0271E1" stroke-width="2" stroke-linecap="round" stroke-linejoin="round"></path></symbol><symbol id="car-loans" width="40" height="40" viewBox="0 0 40 40" fill="none" xmlns="http://www.w3.org/2000/svg"><path opacity="0.2" d="M35 28.75V32.5C35 32.8315 34.8683 33.1495 34.6339 33.3839C34.3995 33.6183 34.0815 33.75 33.75 33.75H30C29.6685 33.75 29.3505 33.6183 29.1161 33.3839C28.8817 33.1495 28.75 32.8315 28.75 32.5V28.75H35Z" fill="#0271E1"></path><path opacity="0.2" d="M11.25 28.75V32.5C11.25 32.8315 11.1183 33.1495 10.8839 33.3839C10.6495 33.6183 10.3315 33.75 10 33.75H6.25C5.91848 33.75 5.60054 33.6183 5.36612 33.3839C5.1317 33.1495 5 32.8315 5 32.5V28.75H11.25Z" fill="#0271E1"></path><path d="M35 18.75L30.3299 8.24233C30.2317 8.02137 30.0715 7.83364 29.8688 7.70188C29.6661 7.57013 29.4295 7.5 29.1877 7.5H10.8123C10.5705 7.5 10.3339 7.57013 10.1312 7.70188C9.92846 7.83364 9.76828 8.02137 9.67008 8.24233L5 18.75H35Z" fill="#C3DDF8"></path><path d="M2.5 18.75H37.5" stroke="#0271E1" stroke-width="2" stroke-linecap="round" stroke-linejoin="round"></path><path d="M35 28.75V32.5C35 32.8315 34.8683 33.1495 34.6339 33.3839C34.3995 33.6183 34.0815 33.75 33.75 33.75H30C29.6685 33.75 29.3505 33.6183 29.1161 33.3839C28.8817 33.1495 28.75 32.8315 28.75 32.5V28.75" stroke="#0271E1" stroke-width="2" stroke-linecap="round" stroke-linejoin="round"></path><path d="M11.25 28.75V32.5C11.25 32.8315 11.1183 33.1495 10.8839 33.3839C10.6495 33.6183 10.3315 33.75 10 33.75H6.25C5.91848 33.75 5.60054 33.6183 5.36612 33.3839C5.1317 33.1495 5 32.8315 5 32.5V28.75" stroke="#0271E1" stroke-width="2" stroke-linecap="round" stroke-linejoin="round"></path><path d="M10 23.75H12.5" stroke="#0271E1" stroke-width="2" stroke-linecap="round" stroke-linejoin="round"></path><path d="M27.5 23.75H30" stroke="#0271E1" stroke-width="2" stroke-linecap="round" stroke-linejoin="round"></path><path d="M35 18.75L30.3299 8.24233C30.2317 8.02137 30.0715 7.83364 29.8688 7.70188C29.6661 7.57013 29.4295 7.5 29.1877 7.5H10.8123C10.5705 7.5 10.3339 7.57013 10.1312 7.70188C9.92846 7.83364 9.76828 8.02137 9.67008 8.24233L5 18.75V28.75H35V18.75Z" stroke="#0271E1" stroke-width="2" stroke-linecap="round" stroke-linejoin="round"></path></symbol><symbol id="car-hire" width="40" height="40" viewBox="0 0 40 40" fill="none" xmlns="http://www.w3.org/2000/svg"><path opacity="0.2" d="M35 28.75V32.5C35 32.8315 34.8683 33.1495 34.6339 33.3839C34.3995 33.6183 34.0815 33.75 33.75 33.75H30C29.6685 33.75 29.3505 33.6183 29.1161 33.3839C28.8817 33.1495 28.75 32.8315 28.75 32.5V28.75H35Z" fill="#0271E1"></path><path opacity="0.2" d="M11.25 28.75V32.5C11.25 32.8315 11.1183 33.1495 10.8839 33.3839C10.6495 33.6183 10.3315 33.75 10 33.75H6.25C5.91848 33.75 5.60054 33.6183 5.36612 33.3839C5.1317 33.1495 5 32.8315 5 32.5V28.75H11.25Z" fill="#0271E1"></path><path d="M35 18.75L30.3299 8.24233C30.2317 8.02137 30.0715 7.83364 29.8688 7.70188C29.6661 7.57013 29.4295 7.5 29.1877 7.5H10.8123C10.5705 7.5 10.3339 7.57013 10.1312 7.70188C9.92846 7.83364 9.76828 8.02137 9.67008 8.24233L5 18.75H35Z" fill="#C3DDF8"></path><path d="M2.5 18.75H37.5" stroke="#0271E1" stroke-width="2" stroke-linecap="round" stroke-linejoin="round"></path><path d="M35 28.75V32.5C35 32.8315 34.8683 33.1495 34.6339 33.3839C34.3995 33.6183 34.0815 33.75 33.75 33.75H30C29.6685 33.75 29.3505 33.6183 29.1161 33.3839C28.8817 33.1495 28.75 32.8315 28.75 32.5V28.75" stroke="#0271E1" stroke-width="2" stroke-linecap="round" stroke-linejoin="round"></path><path d="M11.25 28.75V32.5C11.25 32.8315 11.1183 33.1495 10.8839 33.3839C10.6495 33.6183 10.3315 33.75 10 33.75H6.25C5.91848 33.75 5.60054 33.6183 5.36612 33.3839C5.1317 33.1495 5 32.8315 5 32.5V28.75" stroke="#0271E1" stroke-width="2" stroke-linecap="round" stroke-linejoin="round"></path><path d="M10 23.75H12.5" stroke="#0271E1" stroke-width="2" stroke-linecap="round" stroke-linejoin="round"></path><path d="M27.5 23.75H30" stroke="#0271E1" stroke-width="2" stroke-linecap="round" stroke-linejoin="round"></path><path d="M35 18.75L30.3299 8.24233C30.2317 8.02137 30.0715 7.83364 29.8688 7.70188C29.6661 7.57013 29.4295 7.5 29.1877 7.5H10.8123C10.5705 7.5 10.3339 7.57013 10.1312 7.70188C9.92846 7.83364 9.76828 8.02137 9.67008 8.24233L5 18.75V28.75H35V18.75Z" stroke="#0271E1" stroke-width="2" stroke-linecap="round" stroke-linejoin="round"></path></symbol><symbol id="life-insurance" width="40" height="40" viewBox="0 0 40 40" fill="none" xmlns="http://www.w3.org/2000/svg"><path d="M20 5C24.0742 5.00012 27.9998 6.53057 30.999 9.28814C33.9983 12.0457 35.8523 15.8292 36.1938 19.8891C36.2087 20.0619 36.1876 20.2359 36.1317 20.4002C36.0759 20.5644 35.9866 20.7152 35.8695 20.8431C35.7524 20.971 35.61 21.0732 35.4513 21.1433C35.2926 21.2133 35.1212 21.2496 34.9477 21.25H26.25C26.25 10 20 5 20 5Z" fill="#C3DDF8"></path><path d="M19.9992 5C15.925 5.00012 11.9994 6.53057 9.00019 9.28814C6.00098 12.0457 4.14695 15.8292 3.80541 19.8891C3.79052 20.0619 3.81166 20.2359 3.86749 20.4002C3.92332 20.5644 4.01262 20.7152 4.12975 20.8431C4.24687 20.971 4.38927 21.0732 4.54794 21.1433C4.7066 21.2133 4.87807 21.2496 5.05151 21.25H13.7492C13.7492 10 19.9992 5 19.9992 5Z" fill="#C3DDF8"></path><path d="M27.5 31.25C27.5 32.2446 27.1049 33.1984 26.4017 33.9017C25.6984 34.6049 24.7446 35 23.75 35C22.7554 35 21.8016 34.6049 21.0983 33.9017C20.3951 33.1984 20 32.2446 20 31.25V21.25" stroke="#0271E1" stroke-width="2" stroke-linecap="round" stroke-linejoin="round"></path><path d="M5.05151 21.25C4.87807 21.2497 4.7066 21.2133 4.54794 21.1433C4.38927 21.0732 4.24687 20.971 4.12975 20.8431C4.01262 20.7152 3.92332 20.5644 3.86749 20.4002C3.81166 20.236 3.79052 20.062 3.80541 19.8892C4.14683 15.8292 6.00082 12.0456 9.00006 9.28801C11.9993 6.53041 15.925 5 19.9992 5C24.0735 5 27.9992 6.53041 30.9984 9.28801C33.9976 12.0456 35.8516 15.8292 36.1931 19.8892C36.2079 20.062 36.1868 20.236 36.131 20.4002C36.0752 20.5644 35.9858 20.7152 35.8687 20.8431C35.7516 20.971 35.6092 21.0732 35.4505 21.1433C35.2919 21.2133 35.1204 21.2497 34.947 21.25H5.05151Z" stroke="#0271E1" stroke-width="2" stroke-linecap="round" stroke-linejoin="round"></path><path d="M13.75 21.25C13.75 10 20 5 20 5C20 5 26.25 10 26.25 21.25" stroke="#0271E1" stroke-width="2" stroke-linecap="round" stroke-linejoin="round"></path></symbol><symbol id="shopping-deals" width="40" height="40" viewBox="0 0 40 40" fill="none" xmlns="http://www.w3.org/2000/svg"><path d="M5 12.5H35V8.75C35 8.41848 34.8683 8.10054 34.6339 7.86612C34.3995 7.6317 34.0815 7.5 33.75 7.5H6.25C5.91848 7.5 5.60054 7.6317 5.36612 7.86612C5.1317 8.10054 5 8.41848 5 8.75V12.5Z" fill="#C3DDF8"></path><path d="M33.75 7.5H6.25C5.55964 7.5 5 8.05964 5 8.75V31.25C5 31.9404 5.55964 32.5 6.25 32.5H33.75C34.4404 32.5 35 31.9404 35 31.25V8.75C35 8.05964 34.4404 7.5 33.75 7.5Z" stroke="#0271E1" stroke-width="2" stroke-linecap="round" stroke-linejoin="round"></path><path d="M5 12.5H35" stroke="#0271E1" stroke-width="2" stroke-linecap="round" stroke-linejoin="round"></path><path d="M26.25 17.5C26.25 19.1576 25.5915 20.7473 24.4194 21.9194C23.2473 23.0915 21.6576 23.75 20 23.75C18.3424 23.75 16.7527 23.0915 15.5806 21.9194C14.4085 20.7473 13.75 19.1576 13.75 17.5" stroke="#0271E1" stroke-width="2" stroke-linecap="round" stroke-linejoin="round"></path></symbol><symbol id="broadband-nbn-plans" width="40" height="40" viewBox="0 0 40 40" fill="none" xmlns="http://www.w3.org/2000/svg"><path d="M32.5 22.5H7.5C6.80964 22.5 6.25 23.0596 6.25 23.75V31.25C6.25 31.9404 6.80964 32.5 7.5 32.5H32.5C33.1904 32.5 33.75 31.9404 33.75 31.25V23.75C33.75 23.0596 33.1904 22.5 32.5 22.5Z" fill="#C3DDF8"></path><path d="M32.5 7.5H7.5C6.80964 7.5 6.25 8.05964 6.25 8.75V16.25C6.25 16.9404 6.80964 17.5 7.5 17.5H32.5C33.1904 17.5 33.75 16.9404 33.75 16.25V8.75C33.75 8.05964 33.1904 7.5 32.5 7.5Z" fill="#C3DDF8"></path><path d="M32.5 22.5H7.5C6.80964 22.5 6.25 23.0596 6.25 23.75V31.25C6.25 31.9404 6.80964 32.5 7.5 32.5H32.5C33.1904 32.5 33.75 31.9404 33.75 31.25V23.75C33.75 23.0596 33.1904 22.5 32.5 22.5Z" stroke="#0271E1" stroke-width="2" stroke-linecap="round" stroke-linejoin="round"></path><path d="M32.5 7.5H7.5C6.80964 7.5 6.25 8.05964 6.25 8.75V16.25C6.25 16.9404 6.80964 17.5 7.5 17.5H32.5C33.1904 17.5 33.75 16.9404 33.75 16.25V8.75C33.75 8.05964 33.1904 7.5 32.5 7.5Z" stroke="#0271E1" stroke-width="2" stroke-linecap="round" stroke-linejoin="round"></path><path d="M28.125 14.375C29.1605 14.375 30 13.5355 30 12.5C30 11.4645 29.1605 10.625 28.125 10.625C27.0895 10.625 26.25 11.4645 26.25 12.5C26.25 13.5355 27.0895 14.375 28.125 14.375Z" fill="#0271E1"></path><path d="M28.125 29.375C29.1605 29.375 30 28.5355 30 27.5C30 26.4645 29.1605 25.625 28.125 25.625C27.0895 25.625 26.25 26.4645 26.25 27.5C26.25 28.5355 27.0895 29.375 28.125 29.375Z" fill="#0271E1"></path></symbol><symbol id="mobile-plans" width="40" height="40" viewBox="0 0 40 40" fill="none" xmlns="http://www.w3.org/2000/svg"><path d="M30 8.75H10V31.25H30V8.75Z" fill="#C3DDF8"></path><path d="M27.5 3.75H12.5C11.1193 3.75 10 4.86929 10 6.25V33.75C10 35.1307 11.1193 36.25 12.5 36.25H27.5C28.8807 36.25 30 35.1307 30 33.75V6.25C30 4.86929 28.8807 3.75 27.5 3.75Z" stroke="#0271E1" stroke-width="2" stroke-linecap="round" stroke-linejoin="round"></path><path d="M10 8.75H30" stroke="#0271E1" stroke-width="2" stroke-linecap="round" stroke-linejoin="round"></path><path d="M10 31.25H30" stroke="#0271E1" stroke-width="2" stroke-linecap="round" stroke-linejoin="round"></path></symbol><symbol id="mobile-phones" width="40" height="40" viewBox="0 0 40 40" fill="none" xmlns="http://www.w3.org/2000/svg"><path d="M30 8.75H10V31.25H30V8.75Z" fill="#C3DDF8"></path><path d="M27.5 3.75H12.5C11.1193 3.75 10 4.86929 10 6.25V33.75C10 35.1307 11.1193 36.25 12.5 36.25H27.5C28.8807 36.25 30 35.1307 30 33.75V6.25C30 4.86929 28.8807 3.75 27.5 3.75Z" stroke="#0271E1" stroke-width="2" stroke-linecap="round" stroke-linejoin="round"></path><path d="M10 8.75H30" stroke="#0271E1" stroke-width="2" stroke-linecap="round" stroke-linejoin="round"></path><path d="M10 31.25H30" stroke="#0271E1" stroke-width="2" stroke-linecap="round" stroke-linejoin="round"></path></symbol><symbol id="personal-loans" width="40" height="40" viewBox="0 0 40 40" fill="none" xmlns="http://www.w3.org/2000/svg"><path d="M20 25C22.7614 25 25 22.7614 25 20C25 17.2386 22.7614 15 20 15C17.2386 15 15 17.2386 15 20C15 22.7614 17.2386 25 20 25Z" fill="#C3DDF8"></path><path d="M36.25 10H27.5L37.5 18.75V11.25C37.5 11.0858 37.4677 10.9233 37.4049 10.7716C37.342 10.62 37.25 10.4822 37.1339 10.3661C37.0178 10.25 36.88 10.158 36.7284 10.0951C36.5767 10.0323 36.4142 10 36.25 10V10Z" fill="#C3DDF8"></path><path d="M36.25 30C36.4142 30 36.5767 29.9677 36.7284 29.9049C36.88 29.842 37.0178 29.75 37.1339 29.6339C37.25 29.5178 37.342 29.38 37.4049 29.2284C37.4677 29.0767 37.5 28.9142 37.5 28.75V21.25L27.5 30H36.25Z" fill="#C3DDF8"></path><path d="M2.5 11.25V18.75L12.5 10H3.75C3.58585 10 3.4233 10.0323 3.27164 10.0951C3.11999 10.158 2.98219 10.25 2.86611 10.3661C2.75004 10.4822 2.65797 10.62 2.59515 10.7716C2.53233 10.9233 2.5 11.0858 2.5 11.25V11.25Z" fill="#C3DDF8"></path><path d="M2.5 28.75C2.5 28.9142 2.53233 29.0767 2.59515 29.2284C2.65797 29.38 2.75004 29.5178 2.86611 29.6339C2.98219 29.75 3.11999 29.842 3.27164 29.9049C3.4233 29.9677 3.58585 30 3.75 30H12.5L2.5 21.25V28.75Z" fill="#C3DDF8"></path><path d="M36.25 10H3.75C3.05964 10 2.5 10.5596 2.5 11.25V28.75C2.5 29.4404 3.05964 30 3.75 30H36.25C36.9404 30 37.5 29.4404 37.5 28.75V11.25C37.5 10.5596 36.9404 10 36.25 10Z" stroke="#0271E1" stroke-width="2" stroke-linecap="round" stroke-linejoin="round"></path><path d="M20 25C22.7614 25 25 22.7614 25 20C25 17.2386 22.7614 15 20 15C17.2386 15 15 17.2386 15 20C15 22.7614 17.2386 25 20 25Z" stroke="#0271E1" stroke-width="2" stroke-linecap="round" stroke-linejoin="round"></path><path d="M27.5 10L37.5 18.75" stroke="#0271E1" stroke-width="2" stroke-linecap="round" stroke-linejoin="round"></path><path d="M27.5 30L37.5 21.25" stroke="#0271E1" stroke-width="2" stroke-linecap="round" stroke-linejoin="round"></path><path d="M12.5 10L2.5 18.75" stroke="#0271E1" stroke-width="2" stroke-linecap="round" stroke-linejoin="round"></path><path d="M12.5 30L2.5 21.25" stroke="#0271E1" stroke-width="2" stroke-linecap="round" stroke-linejoin="round"></path></symbol><symbol id="debt-consolidation" width="40" height="40" viewBox="0 0 40 40" fill="none" xmlns="http://www.w3.org/2000/svg"><path d="M20 25C22.7614 25 25 22.7614 25 20C25 17.2386 22.7614 15 20 15C17.2386 15 15 17.2386 15 20C15 22.7614 17.2386 25 20 25Z" fill="#C3DDF8"></path><path d="M36.25 10H27.5L37.5 18.75V11.25C37.5 11.0858 37.4677 10.9233 37.4049 10.7716C37.342 10.62 37.25 10.4822 37.1339 10.3661C37.0178 10.25 36.88 10.158 36.7284 10.0951C36.5767 10.0323 36.4142 10 36.25 10V10Z" fill="#C3DDF8"></path><path d="M36.25 30C36.4142 30 36.5767 29.9677 36.7284 29.9049C36.88 29.842 37.0178 29.75 37.1339 29.6339C37.25 29.5178 37.342 29.38 37.4049 29.2284C37.4677 29.0767 37.5 28.9142 37.5 28.75V21.25L27.5 30H36.25Z" fill="#C3DDF8"></path><path d="M2.5 11.25V18.75L12.5 10H3.75C3.58585 10 3.4233 10.0323 3.27164 10.0951C3.11999 10.158 2.98219 10.25 2.86611 10.3661C2.75004 10.4822 2.65797 10.62 2.59515 10.7716C2.53233 10.9233 2.5 11.0858 2.5 11.25V11.25Z" fill="#C3DDF8"></path><path d="M2.5 28.75C2.5 28.9142 2.53233 29.0767 2.59515 29.2284C2.65797 29.38 2.75004 29.5178 2.86611 29.6339C2.98219 29.75 3.11999 29.842 3.27164 29.9049C3.4233 29.9677 3.58585 30 3.75 30H12.5L2.5 21.25V28.75Z" fill="#C3DDF8"></path><path d="M36.25 10H3.75C3.05964 10 2.5 10.5596 2.5 11.25V28.75C2.5 29.4404 3.05964 30 3.75 30H36.25C36.9404 30 37.5 29.4404 37.5 28.75V11.25C37.5 10.5596 36.9404 10 36.25 10Z" stroke="#0271E1" stroke-width="2" stroke-linecap="round" stroke-linejoin="round"></path><path d="M20 25C22.7614 25 25 22.7614 25 20C25 17.2386 22.7614 15 20 15C17.2386 15 15 17.2386 15 20C15 22.7614 17.2386 25 20 25Z" stroke="#0271E1" stroke-width="2" stroke-linecap="round" stroke-linejoin="round"></path><path d="M27.5 10L37.5 18.75" stroke="#0271E1" stroke-width="2" stroke-linecap="round" stroke-linejoin="round"></path><path d="M27.5 30L37.5 21.25" stroke="#0271E1" stroke-width="2" stroke-linecap="round" stroke-linejoin="round"></path><path d="M12.5 10L2.5 18.75" stroke="#0271E1" stroke-width="2" stroke-linecap="round" stroke-linejoin="round"></path><path d="M12.5 30L2.5 21.25" stroke="#0271E1" stroke-width="2" stroke-linecap="round" stroke-linejoin="round"></path></symbol><symbol id="business-banking" width="40" height="40" viewBox="0 0 40 40" fill="none" xmlns="http://www.w3.org/2000/svg"><path d="M20 25C22.7614 25 25 22.7614 25 20C25 17.2386 22.7614 15 20 15C17.2386 15 15 17.2386 15 20C15 22.7614 17.2386 25 20 25Z" fill="#C3DDF8"></path><path d="M36.25 10H27.5L37.5 18.75V11.25C37.5 11.0858 37.4677 10.9233 37.4049 10.7716C37.342 10.62 37.25 10.4822 37.1339 10.3661C37.0178 10.25 36.88 10.158 36.7284 10.0951C36.5767 10.0323 36.4142 10 36.25 10V10Z" fill="#C3DDF8"></path><path d="M36.25 30C36.4142 30 36.5767 29.9677 36.7284 29.9049C36.88 29.842 37.0178 29.75 37.1339 29.6339C37.25 29.5178 37.342 29.38 37.4049 29.2284C37.4677 29.0767 37.5 28.9142 37.5 28.75V21.25L27.5 30H36.25Z" fill="#C3DDF8"></path><path d="M2.5 11.25V18.75L12.5 10H3.75C3.58585 10 3.4233 10.0323 3.27164 10.0951C3.11999 10.158 2.98219 10.25 2.86611 10.3661C2.75004 10.4822 2.65797 10.62 2.59515 10.7716C2.53233 10.9233 2.5 11.0858 2.5 11.25V11.25Z" fill="#C3DDF8"></path><path d="M2.5 28.75C2.5 28.9142 2.53233 29.0767 2.59515 29.2284C2.65797 29.38 2.75004 29.5178 2.86611 29.6339C2.98219 29.75 3.11999 29.842 3.27164 29.9049C3.4233 29.9677 3.58585 30 3.75 30H12.5L2.5 21.25V28.75Z" fill="#C3DDF8"></path><path d="M36.25 10H3.75C3.05964 10 2.5 10.5596 2.5 11.25V28.75C2.5 29.4404 3.05964 30 3.75 30H36.25C36.9404 30 37.5 29.4404 37.5 28.75V11.25C37.5 10.5596 36.9404 10 36.25 10Z" stroke="#0271E1" stroke-width="2" stroke-linecap="round" stroke-linejoin="round"></path><path d="M20 25C22.7614 25 25 22.7614 25 20C25 17.2386 22.7614 15 20 15C17.2386 15 15 17.2386 15 20C15 22.7614 17.2386 25 20 25Z" stroke="#0271E1" stroke-width="2" stroke-linecap="round" stroke-linejoin="round"></path><path d="M27.5 10L37.5 18.75" stroke="#0271E1" stroke-width="2" stroke-linecap="round" stroke-linejoin="round"></path><path d="M27.5 30L37.5 21.25" stroke="#0271E1" stroke-width="2" stroke-linecap="round" stroke-linejoin="round"></path><path d="M12.5 10L2.5 18.75" stroke="#0271E1" stroke-width="2" stroke-linecap="round" stroke-linejoin="round"></path><path d="M12.5 30L2.5 21.25" stroke="#0271E1" stroke-width="2" stroke-linecap="round" stroke-linejoin="round"></path></symbol><symbol id="travel-deals" width="40" height="40" viewBox="0 0 40 40" fill="none" xmlns="http://www.w3.org/2000/svg"><path d="M6.25 13.75H33.75V7.5C33.75 7.16848 33.6183 6.85054 33.3839 6.61612C33.1495 6.3817 32.8315 6.25 32.5 6.25H7.5C7.16848 6.25 6.85054 6.3817 6.61612 6.61612C6.3817 6.85054 6.25 7.16848 6.25 7.5V13.75Z" fill="#C3DDF8"></path><path d="M32.5 6.25H7.5C6.80964 6.25 6.25 6.80964 6.25 7.5V32.5C6.25 33.1904 6.80964 33.75 7.5 33.75H32.5C33.1904 33.75 33.75 33.1904 33.75 32.5V7.5C33.75 6.80964 33.1904 6.25 32.5 6.25Z" stroke="#0271E1" stroke-width="2" stroke-linecap="round" stroke-linejoin="round"></path><path d="M27.5 3.75V8.75" stroke="#0271E1" stroke-width="2" stroke-linecap="round" stroke-linejoin="round"></path><path d="M12.5 3.75V8.75" stroke="#0271E1" stroke-width="2" stroke-linecap="round" stroke-linejoin="round"></path><path d="M6.25 13.75H33.75" stroke="#0271E1" stroke-width="2" stroke-linecap="round" stroke-linejoin="round"></path><path d="M14.375 19.9995H18.75L16.25 23.1245C16.6611 23.1245 17.0658 23.2258 17.4283 23.4196C17.7909 23.6133 18.1 23.8935 18.3285 24.2352C18.5569 24.577 18.6975 24.9698 18.7379 25.3789C18.7783 25.7879 18.7172 26.2007 18.56 26.5805C18.4028 26.9603 18.1544 27.2955 17.8367 27.5564C17.5191 27.8173 17.142 27.9958 16.7388 28.0762C16.3357 28.1566 15.919 28.1363 15.5256 28.0172C15.1321 27.8981 14.7742 27.6838 14.4833 27.3933" stroke="#0271E1" stroke-width="2" stroke-linecap="round" stroke-linejoin="round"></path><path d="M22.5 21.8745L25 19.9995V28.1245" stroke="#0271E1" stroke-width="2" stroke-linecap="round" stroke-linejoin="round"></path></symbol><symbol id="flight-sales" width="40" height="40" viewBox="0 0 40 40" fill="none" xmlns="http://www.w3.org/2000/svg"><path d="M6.25 13.75H33.75V7.5C33.75 7.16848 33.6183 6.85054 33.3839 6.61612C33.1495 6.3817 32.8315 6.25 32.5 6.25H7.5C7.16848 6.25 6.85054 6.3817 6.61612 6.61612C6.3817 6.85054 6.25 7.16848 6.25 7.5V13.75Z" fill="#C3DDF8"></path><path d="M32.5 6.25H7.5C6.80964 6.25 6.25 6.80964 6.25 7.5V32.5C6.25 33.1904 6.80964 33.75 7.5 33.75H32.5C33.1904 33.75 33.75 33.1904 33.75 32.5V7.5C33.75 6.80964 33.1904 6.25 32.5 6.25Z" stroke="#0271E1" stroke-width="2" stroke-linecap="round" stroke-linejoin="round"></path><path d="M27.5 3.75V8.75" stroke="#0271E1" stroke-width="2" stroke-linecap="round" stroke-linejoin="round"></path><path d="M12.5 3.75V8.75" stroke="#0271E1" stroke-width="2" stroke-linecap="round" stroke-linejoin="round"></path><path d="M6.25 13.75H33.75" stroke="#0271E1" stroke-width="2" stroke-linecap="round" stroke-linejoin="round"></path><path d="M14.375 19.9995H18.75L16.25 23.1245C16.6611 23.1245 17.0658 23.2258 17.4283 23.4196C17.7909 23.6133 18.1 23.8935 18.3285 24.2352C18.5569 24.577 18.6975 24.9698 18.7379 25.3789C18.7783 25.7879 18.7172 26.2007 18.56 26.5805C18.4028 26.9603 18.1544 27.2955 17.8367 27.5564C17.5191 27.8173 17.142 27.9958 16.7388 28.0762C16.3357 28.1566 15.919 28.1363 15.5256 28.0172C15.1321 27.8981 14.7742 27.6838 14.4833 27.3933" stroke="#0271E1" stroke-width="2" stroke-linecap="round" stroke-linejoin="round"></path><path d="M22.5 21.8745L25 19.9995V28.1245" stroke="#0271E1" stroke-width="2" stroke-linecap="round" stroke-linejoin="round"></path></symbol><symbol id="bitcoin" width="40" height="40" viewBox="0 0 40 40" fill="none" xmlns="http://www.w3.org/2000/svg"><path d="M20 35C28.2843 35 35 28.2843 35 20C35 11.7157 28.2843 5 20 5C11.7157 5 5 11.7157 5 20C5 28.2843 11.7157 35 20 35Z" fill="#C3DDF8"></path><path d="M20 35C28.2843 35 35 28.2843 35 20C35 11.7157 28.2843 5 20 5C11.7157 5 5 11.7157 5 20C5 28.2843 11.7157 35 20 35Z" stroke="#0271E1" stroke-width="2" stroke-linecap="round" stroke-linejoin="round"></path><path d="M26.0326 17.311C26.1508 15.3793 24.694 14.4619 22.7592 13.9265L23.1632 11.2904L21.6428 11.0163L21.2495 13.583C20.8498 13.5109 20.4399 13.4456 20.0327 13.3809L20.4289 10.7974L18.9094 10.5233L18.5048 13.1585C18.1746 13.1062 17.8503 13.0544 17.5351 12.9977L17.5361 12.9895L15.4392 12.6106L15.1769 14.3244C15.1769 14.3244 16.3032 14.5043 16.2811 14.5228C16.897 14.634 17.0396 15.0475 17.048 15.3836L16.5878 18.3867C16.6302 18.3946 16.6854 18.4065 16.7467 18.4269C16.6961 18.4178 16.6419 18.4077 16.5861 18.3981L15.9408 22.6051C15.8824 22.8047 15.7185 23.1103 15.2881 23.0335C15.3048 23.0552 14.183 22.8339 14.183 22.8339L13.5871 24.6957L15.5657 25.0524C15.9339 25.1193 16.2952 25.1912 16.6505 25.2577L16.2424 27.924L17.7611 28.1981L18.1655 25.5602C18.5811 25.6445 18.9841 25.7208 19.3782 25.7915L18.975 28.4171L20.4954 28.6912L20.9039 26.0299C23.4837 26.3361 25.3769 25.9791 25.9874 23.4859C26.4794 21.4785 25.7098 20.4043 24.3151 19.7749C25.2693 19.4602 25.9483 18.7249 26.0326 17.311V17.311ZM23.0316 22.6282C22.727 24.6207 19.5292 23.8111 18.4986 23.6263L19.0405 20.0939C20.0712 20.2801 23.3503 20.5501 23.0316 22.6282ZM23.0884 17.5168C22.8101 19.3294 20.1466 18.6317 19.2883 18.477L19.7795 15.2732C20.6378 15.428 23.3781 15.6262 23.0884 17.5168V17.5168Z" fill="#0271E1"></path></symbol><symbol id="travel-money" width="40" height="40" viewBox="0 0 40 40" fill="none" xmlns="http://www.w3.org/2000/svg"><path d="M20 33.75L13.75 36.25V31.25L16.25 28.75V23.75L3.75 26.25V21.25L16.25 15L16.2676 7.5C16.2676 6.50544 16.6627 5.55161 17.3659 4.84835C18.0692 4.14509 19.023 3.75 20.0176 3.75C21.0121 3.75 21.966 4.14509 22.6692 4.84835C23.3725 5.55161 23.7676 6.50544 23.7676 7.5L23.7852 15L36.2852 21.25V26.25L23.7852 23.75V28.75L26.25 31.25V36.25L20 33.75Z" fill="#C3DDF8"></path><path d="M20 33.75L13.75 36.25V31.25L16.25 28.75V23.75L3.75 26.25V21.25L16.25 15L16.2676 7.5C16.2676 6.50544 16.6627 5.55161 17.3659 4.84835C18.0692 4.14509 19.023 3.75 20.0176 3.75C21.0121 3.75 21.966 4.14509 22.6692 4.84835C23.3725 5.55161 23.7676 6.50544 23.7676 7.5L23.7852 15L36.2852 21.25V26.25L23.7852 23.75V28.75L26.25 31.25V36.25L20 33.75Z" stroke="#0271E1" stroke-width="2" stroke-linecap="round" stroke-linejoin="round"></path></symbol><symbol id="savings-accounts" width="40" height="40" viewBox="0 0 40 40" fill="none" xmlns="http://www.w3.org/2000/svg"><path d="M20 3.75V36.25" stroke="#0271E1" stroke-width="2" stroke-linecap="round" stroke-linejoin="round"></path><path d="M28.75 13.75C28.75 12.9292 28.5883 12.1165 28.2742 11.3582C27.9602 10.5999 27.4998 9.91095 26.9194 9.33058C26.3391 8.75022 25.6501 8.28984 24.8918 7.97575C24.1335 7.66166 23.3208 7.5 22.5 7.5H16.875C15.2174 7.5 13.6277 8.15848 12.4556 9.33058C11.2835 10.5027 10.625 12.0924 10.625 13.75C10.625 15.4076 11.2835 16.9973 12.4556 18.1694C13.6277 19.3415 15.2174 20 16.875 20H23.75C25.4076 20 26.9973 20.6585 28.1694 21.8306C29.3415 23.0027 30 24.5924 30 26.25C30 27.9076 29.3415 29.4973 28.1694 30.6694C26.9973 31.8415 25.4076 32.5 23.75 32.5H16.25C14.5924 32.5 13.0027 31.8415 11.8306 30.6694C10.6585 29.4973 10 27.9076 10 26.25" stroke="#0271E1" stroke-width="2" stroke-linecap="round" stroke-linejoin="round"></path></symbol><symbol id="intl-money-transfers" width="40" height="40" viewBox="0 0 40 40" fill="none" xmlns="http://www.w3.org/2000/svg"><path d="M20.3518 34.996C23.0943 34.9323 25.7668 34.1178 28.0787 32.6412C30.3906 31.1646 32.2533 29.0823 33.4643 26.6208L33.464 26.6207L24.9818 21.4037C24.8331 21.3123 24.6669 21.253 24.4939 21.2297L20.9285 20.749C20.6608 20.7129 20.3886 20.7646 20.1526 20.8962C19.9167 21.0278 19.7297 21.2322 19.6198 21.479L17.4793 26.2819C17.3798 26.5052 17.348 26.7529 17.3878 26.9941C17.4276 27.2354 17.5373 27.4597 17.7033 27.6393L20.6407 30.8166C20.7739 30.9606 20.8713 31.134 20.9251 31.3226C20.9788 31.5113 20.9874 31.7099 20.9502 31.9025L20.3518 34.9957L20.3518 34.996Z" fill="#C3DDF8"></path><path d="M10.1486 8.6885L8.75106 11.9931C8.62645 12.2878 8.61956 12.619 8.73181 12.9186L10.5273 17.7105C10.6008 17.9067 10.7225 18.0813 10.8811 18.2182C11.0397 18.3551 11.2303 18.45 11.4351 18.494L12.2825 18.6761L13.5836 15.5873C13.6791 15.3607 13.8393 15.1672 14.0442 15.0312C14.2491 14.8951 14.4896 14.8226 14.7356 14.8226H18.0708C18.2821 14.8226 18.49 14.769 18.6751 14.6668L20.5878 13.6105C20.6721 13.564 20.7506 13.5079 20.822 13.4434L25.0268 9.64064C25.2366 9.45093 25.3758 9.1957 25.4218 8.91663C25.4677 8.63756 25.4177 8.35116 25.2798 8.10421L23.8214 5.49196L23.8216 5.49124C21.4544 4.87069 18.9716 4.83756 16.5887 5.39471C14.2058 5.95187 11.995 7.08246 10.1484 8.68825L10.1486 8.6885Z" fill="#C3DDF8"></path><path d="M20 35C28.2843 35 35 28.2843 35 20C35 11.7157 28.2843 5 20 5C11.7157 5 5 11.7157 5 20C5 28.2843 11.7157 35 20 35Z" stroke="#0271E1" stroke-width="2" stroke-linecap="round" stroke-linejoin="round"></path><path d="M33.464 26.6207L24.9818 21.4037C24.8331 21.3123 24.6669 21.253 24.4939 21.2297L20.9285 20.749C20.6608 20.7129 20.3886 20.7646 20.1526 20.8962C19.9167 21.0278 19.7298 21.2322 19.6198 21.479L17.4793 26.2819C17.3798 26.5052 17.348 26.7529 17.3878 26.9941C17.4276 27.2354 17.5373 27.4597 17.7033 27.6393L20.6407 30.8166C20.7739 30.9606 20.8713 31.134 20.9251 31.3226C20.9788 31.5113 20.9874 31.7099 20.9502 31.9025L20.3518 34.9957" stroke="#0271E1" stroke-width="2" stroke-linecap="round" stroke-linejoin="round"></path><path d="M10.1486 8.68849L8.75106 11.9931C8.62645 12.2878 8.61956 12.619 8.73181 12.9186L10.5273 17.7105C10.6008 17.9067 10.7225 18.0813 10.8811 18.2182C11.0397 18.3551 11.2303 18.45 11.4351 18.494L14.7836 19.2137C14.9694 19.2536 15.1436 19.3354 15.293 19.4528C15.4425 19.5702 15.5632 19.7201 15.646 19.8911L16.2406 21.1196C16.343 21.331 16.5028 21.5093 16.7018 21.634C16.9008 21.7588 17.1309 21.825 17.3658 21.825H19.4646" stroke="#0271E1" stroke-width="2" stroke-linecap="round" stroke-linejoin="round"></path><path d="M23.8222 5.49195L25.2805 8.1042C25.4184 8.35115 25.4685 8.63755 25.4225 8.91662C25.3766 9.19569 25.2373 9.45092 25.0276 9.64063L20.8227 13.4434C20.7514 13.5079 20.6728 13.564 20.5886 13.6105L18.6758 14.6668C18.4908 14.769 18.2829 14.8226 18.0715 14.8226H14.7363C14.4903 14.8226 14.2499 14.8951 14.0449 15.0312C13.84 15.1672 13.6798 15.3607 13.5843 15.5873L12.2832 18.6761" stroke="#0271E1" stroke-width="2" stroke-linecap="round" stroke-linejoin="round"></path></symbol><symbol id="transaction-accounts" width="40" height="40" viewBox="0 0 40 40" fill="none" xmlns="http://www.w3.org/2000/svg"><path d="M3.75 15H36.25L20 5L3.75 15Z" fill="#C3DDF8"></path><path d="M3.75 15H36.25L20 5L3.75 15Z" stroke="#0271E1" stroke-width="2" stroke-linecap="round" stroke-linejoin="round"></path><path d="M8.75 15V27.5" stroke="#0271E1" stroke-width="2" stroke-linecap="round" stroke-linejoin="round"></path><path d="M16.25 15V27.5" stroke="#0271E1" stroke-width="2" stroke-linecap="round" stroke-linejoin="round"></path><path d="M23.75 15V27.5" stroke="#0271E1" stroke-width="2" stroke-linecap="round" stroke-linejoin="round"></path><path d="M31.25 15V27.5" stroke="#0271E1" stroke-width="2" stroke-linecap="round" stroke-linejoin="round"></path><path d="M5 27.5H35" stroke="#0271E1" stroke-width="2" stroke-linecap="round" stroke-linejoin="round"></path><path d="M2.5 32.5H37.5" stroke="#0271E1" stroke-width="2" stroke-linecap="round" stroke-linejoin="round"></path></symbol><symbol id="short-term-loans" width="40" height="40" viewBox="0 0 40 40" fill="none" xmlns="http://www.w3.org/2000/svg"><path d="M20 20L28.75 11.25H11.25L20 20Z" fill="#C3DDF8"></path><path d="M9.26758 6.25H30.732C30.9793 6.25 31.2209 6.32331 31.4265 6.46066C31.6321 6.59801 31.7923 6.79324 31.8869 7.02165C31.9815 7.25005 32.0063 7.50139 31.958 7.74386C31.9098 7.98634 31.7907 8.20907 31.6159 8.38388L19.9998 20L8.38369 8.38388C8.20888 8.20907 8.08983 7.98634 8.0416 7.74386C7.99337 7.50139 8.01812 7.25005 8.11273 7.02165C8.20734 6.79324 8.36755 6.59801 8.57312 6.46066C8.77868 6.32331 9.02035 6.25 9.26758 6.25Z" stroke="#0271E1" stroke-width="2" stroke-linecap="round" stroke-linejoin="round"></path><path d="M9.26758 33.75H30.732C30.9793 33.75 31.2209 33.6767 31.4265 33.5393C31.6321 33.402 31.7923 33.2068 31.8869 32.9784C31.9815 32.7499 32.0063 32.4986 31.958 32.2561C31.9098 32.0137 31.7907 31.7909 31.6159 31.6161L19.9998 20L8.38369 31.6161C8.20888 31.7909 8.08983 32.0137 8.0416 32.2561C7.99337 32.4986 8.01812 32.7499 8.11273 32.9784C8.20734 33.2068 8.36755 33.402 8.57312 33.5393C8.77868 33.6767 9.02035 33.75 9.26758 33.75Z" stroke="#0271E1" stroke-width="2" stroke-linecap="round" stroke-linejoin="round"></path><path d="M11.25 11.25H28.75" stroke="#0271E1" stroke-width="2" stroke-linecap="round" stroke-linejoin="round"></path></symbol><symbol id="business-banking" width="40" height="40" viewBox="0 0 40 40" fill="none" xmlns="http://www.w3.org/2000/svg"><path d="M20 20L28.75 11.25H11.25L20 20Z" fill="#C3DDF8"></path><path d="M9.26758 6.25H30.732C30.9793 6.25 31.2209 6.32331 31.4265 6.46066C31.6321 6.59801 31.7923 6.79324 31.8869 7.02165C31.9815 7.25005 32.0063 7.50139 31.958 7.74386C31.9098 7.98634 31.7907 8.20907 31.6159 8.38388L19.9998 20L8.38369 8.38388C8.20888 8.20907 8.08983 7.98634 8.0416 7.74386C7.99337 7.50139 8.01812 7.25005 8.11273 7.02165C8.20734 6.79324 8.36755 6.59801 8.57312 6.46066C8.77868 6.32331 9.02035 6.25 9.26758 6.25Z" stroke="#0271E1" stroke-width="2" stroke-linecap="round" stroke-linejoin="round"></path><path d="M9.26758 33.75H30.732C30.9793 33.75 31.2209 33.6767 31.4265 33.5393C31.6321 33.402 31.7923 33.2068 31.8869 32.9784C31.9815 32.7499 32.0063 32.4986 31.958 32.2561C31.9098 32.0137 31.7907 31.7909 31.6159 31.6161L19.9998 20L8.38369 31.6161C8.20888 31.7909 8.08983 32.0137 8.0416 32.2561C7.99337 32.4986 8.01812 32.7499 8.11273 32.9784C8.20734 33.2068 8.36755 33.402 8.57312 33.5393C8.77868 33.6767 9.02035 33.75 9.26758 33.75Z" stroke="#0271E1" stroke-width="2" stroke-linecap="round" stroke-linejoin="round"></path><path d="M11.25 11.25H28.75" stroke="#0271E1" stroke-width="2" stroke-linecap="round" stroke-linejoin="round"></path></symbol><symbol id="student-loans" width="40" height="40" viewBox="0 0 40 40" fill="none" xmlns="http://www.w3.org/2000/svg"><path d="M20 20L28.75 11.25H11.25L20 20Z" fill="#C3DDF8"></path><path d="M9.26758 6.25H30.732C30.9793 6.25 31.2209 6.32331 31.4265 6.46066C31.6321 6.59801 31.7923 6.79324 31.8869 7.02165C31.9815 7.25005 32.0063 7.50139 31.958 7.74386C31.9098 7.98634 31.7907 8.20907 31.6159 8.38388L19.9998 20L8.38369 8.38388C8.20888 8.20907 8.08983 7.98634 8.0416 7.74386C7.99337 7.50139 8.01812 7.25005 8.11273 7.02165C8.20734 6.79324 8.36755 6.59801 8.57312 6.46066C8.77868 6.32331 9.02035 6.25 9.26758 6.25Z" stroke="#0271E1" stroke-width="2" stroke-linecap="round" stroke-linejoin="round"></path><path d="M9.26758 33.75H30.732C30.9793 33.75 31.2209 33.6767 31.4265 33.5393C31.6321 33.402 31.7923 33.2068 31.8869 32.9784C31.9815 32.7499 32.0063 32.4986 31.958 32.2561C31.9098 32.0137 31.7907 31.7909 31.6159 31.6161L19.9998 20L8.38369 31.6161C8.20888 31.7909 8.08983 32.0137 8.0416 32.2561C7.99337 32.4986 8.01812 32.7499 8.11273 32.9784C8.20734 33.2068 8.36755 33.402 8.57312 33.5393C8.77868 33.6767 9.02035 33.75 9.26758 33.75Z" stroke="#0271E1" stroke-width="2" stroke-linecap="round" stroke-linejoin="round"></path><path d="M11.25 11.25H28.75" stroke="#0271E1" stroke-width="2" stroke-linecap="round" stroke-linejoin="round"></path></symbol><symbol id="pet-insurance" width="40" height="40" viewBox="0 0 40 40" fill="none" xmlns="http://www.w3.org/2000/svg"><path d="M33.125 20C34.8509 20 36.25 18.6009 36.25 16.875C36.25 15.1491 34.8509 13.75 33.125 13.75C31.3991 13.75 30 15.1491 30 16.875C30 18.6009 31.3991 20 33.125 20Z" fill="#C3DDF8"></path><path d="M6.875 20C8.60089 20 10 18.6009 10 16.875C10 15.1491 8.60089 13.75 6.875 13.75C5.14911 13.75 3.75 15.1491 3.75 16.875C3.75 18.6009 5.14911 20 6.875 20Z" fill="#C3DDF8"></path><path d="M14.375 12.5C16.1009 12.5 17.5 11.1009 17.5 9.375C17.5 7.64911 16.1009 6.25 14.375 6.25C12.6491 6.25 11.25 7.64911 11.25 9.375C11.25 11.1009 12.6491 12.5 14.375 12.5Z" fill="#C3DDF8"></path><path d="M25.625 12.5C27.3509 12.5 28.75 11.1009 28.75 9.375C28.75 7.64911 27.3509 6.25 25.625 6.25C23.8991 6.25 22.5 7.64911 22.5 9.375C22.5 11.1009 23.8991 12.5 25.625 12.5Z" fill="#C3DDF8"></path><path d="M28.631 24.3521C27.0632 23.4813 25.9026 22.0267 25.4017 20.3046L25.4016 20.3048C25.0617 19.1353 24.3513 18.1077 23.3773 17.3765C22.4033 16.6453 21.2183 16.25 20.0004 16.25C18.7825 16.25 17.5975 16.6453 16.6235 17.3765C15.6495 18.1077 14.9391 19.1353 14.5992 20.3048L14.599 20.3046C14.0982 22.0267 12.9376 23.4813 11.3698 24.3521C10.2404 24.9643 9.38996 25.9876 8.99465 27.2098C8.59933 28.4321 8.68951 29.7596 9.24648 30.9172C9.80345 32.0748 10.7845 32.9737 11.9863 33.4275C13.188 33.8813 14.5184 33.8553 15.7015 33.3549C18.4561 32.2253 21.5446 32.2253 24.2993 33.3549C25.4825 33.8559 26.8131 33.8823 28.0153 33.4285C29.2174 32.9748 30.1988 32.0758 30.7559 30.918C31.313 29.7601 31.403 28.4323 31.0074 27.2098C30.6118 25.9873 29.7608 24.964 28.631 24.3521H28.631Z" fill="#C3DDF8"></path><path d="M33.125 20C34.8509 20 36.25 18.6009 36.25 16.875C36.25 15.1491 34.8509 13.75 33.125 13.75C31.3991 13.75 30 15.1491 30 16.875C30 18.6009 31.3991 20 33.125 20Z" stroke="#0271E1" stroke-width="2" stroke-linecap="round" stroke-linejoin="round"></path><path d="M6.875 20C8.60089 20 10 18.6009 10 16.875C10 15.1491 8.60089 13.75 6.875 13.75C5.14911 13.75 3.75 15.1491 3.75 16.875C3.75 18.6009 5.14911 20 6.875 20Z" stroke="#0271E1" stroke-width="2" stroke-linecap="round" stroke-linejoin="round"></path><path d="M14.375 12.5C16.1009 12.5 17.5 11.1009 17.5 9.375C17.5 7.64911 16.1009 6.25 14.375 6.25C12.6491 6.25 11.25 7.64911 11.25 9.375C11.25 11.1009 12.6491 12.5 14.375 12.5Z" stroke="#0271E1" stroke-width="2" stroke-linecap="round" stroke-linejoin="round"></path><path d="M25.625 12.5C27.3509 12.5 28.75 11.1009 28.75 9.375C28.75 7.64911 27.3509 6.25 25.625 6.25C23.8991 6.25 22.5 7.64911 22.5 9.375C22.5 11.1009 23.8991 12.5 25.625 12.5Z" stroke="#0271E1" stroke-width="2" stroke-linecap="round" stroke-linejoin="round"></path><path d="M28.631 24.3521C27.0632 23.4813 25.9026 22.0267 25.4017 20.3046L25.4016 20.3048C25.0617 19.1353 24.3513 18.1077 23.3773 17.3765C22.4033 16.6453 21.2183 16.25 20.0004 16.25C18.7825 16.25 17.5975 16.6453 16.6235 17.3765C15.6495 18.1077 14.9391 19.1353 14.5992 20.3048L14.599 20.3046C14.0982 22.0267 12.9376 23.4813 11.3698 24.3521C10.2404 24.9643 9.38996 25.9876 8.99465 27.2098C8.59933 28.4321 8.68951 29.7596 9.24648 30.9172C9.80345 32.0748 10.7845 32.9737 11.9863 33.4275C13.188 33.8813 14.5184 33.8553 15.7015 33.3549C18.4561 32.2253 21.5446 32.2253 24.2993 33.3549C25.4825 33.8559 26.8131 33.8823 28.0153 33.4285C29.2174 32.9748 30.1988 32.0758 30.7559 30.918C31.313 29.7601 31.403 28.4323 31.0074 27.2098C30.6118 25.9873 29.7608 24.964 28.631 24.3521H28.631Z" stroke="#0271E1" stroke-width="2" stroke-linecap="round" stroke-linejoin="round"></path></symbol><symbol id="share-trading" width="40" height="40" viewBox="0 0 40 40" fill="none" xmlns="http://www.w3.org/2000/svg"><path d="M35 32.5H5V7.5" stroke="#0271E1" stroke-width="2" stroke-linecap="round" stroke-linejoin="round"></path><path d="M32.5 10L20 22.5L15 17.5L5 27.5" stroke="#0271E1" stroke-width="2" stroke-linecap="round" stroke-linejoin="round"></path><path d="M32.5 16.25V10H26.25" stroke="#0271E1" stroke-width="2" stroke-linecap="round" stroke-linejoin="round"></path></symbol><symbol id="electricity" width="40" height="40" viewBox="0 0 40 40" fill="none" xmlns="http://www.w3.org/2000/svg"><path d="M15 37.4987L17.5 24.9987L7.5 21.2487L25 2.49875L22.5 14.9987L32.5 18.7487L15 37.4987Z" fill="#C3DDF8"></path><path d="M15 37.4987L17.5 24.9987L7.5 21.2487L25 2.49875L22.5 14.9987L32.5 18.7487L15 37.4987Z" stroke="#0271E1" stroke-width="2" stroke-linecap="round" stroke-linejoin="round"></path></symbol><symbol id="electricity" height="40" viewBox="0 0 40 40" fill="none" xmlns="http://www.w3.org/2000/svg"><path d="M32.5 7.5H7.5C6.83696 7.50001 6.20108 7.7634 5.73224 8.23224C5.2634 8.70108 5.00001 9.33696 5 10V27.5C5.00001 28.163 5.2634 28.7989 5.73224 29.2678C6.20108 29.7366 6.83696 30 7.5 30H32.5C33.163 30 33.7989 29.7366 34.2678 29.2678C34.7366 28.7989 35 28.163 35 27.5V10C35 9.33696 34.7366 8.70108 34.2678 8.23224C33.7989 7.7634 33.163 7.50001 32.5 7.5V7.5ZM17.5 23.75V13.75L25 18.75L17.5 23.75Z" fill="#C3DDF8"></path><path d="M7.5 30L32.5 30C33.8807 30 35 28.8807 35 27.5V10C35 8.61929 33.8807 7.5 32.5 7.5L7.5 7.5C6.11929 7.5 5 8.61929 5 10L5 27.5C5 28.8807 6.11929 30 7.5 30Z" stroke="#0271E1" stroke-width="2" stroke-linecap="round" stroke-linejoin="round"></path><path d="M25 35H15" stroke="#0271E1" stroke-width="2" stroke-linecap="round" stroke-linejoin="round"></path><path d="M25 18.75L17.5 13.75V23.75L25 18.75Z" stroke="#0271E1" stroke-width="2" stroke-linecap="round" stroke-linejoin="round"></path></symbol><symbol id="internet-tv" width="40" height="40" viewBox="0 0 40 40" fill="none" xmlns="http://www.w3.org/2000/svg"><path d="M32.5 7.5H7.5C6.83696 7.50001 6.20108 7.7634 5.73224 8.23224C5.2634 8.70108 5.00001 9.33696 5 10V27.5C5.00001 28.163 5.2634 28.7989 5.73224 29.2678C6.20108 29.7366 6.83696 30 7.5 30H32.5C33.163 30 33.7989 29.7366 34.2678 29.2678C34.7366 28.7989 35 28.163 35 27.5V10C35 9.33696 34.7366 8.70108 34.2678 8.23224C33.7989 7.7634 33.163 7.50001 32.5 7.5V7.5ZM17.5 23.75V13.75L25 18.75L17.5 23.75Z" fill="#C3DDF8"></path><path d="M7.5 30L32.5 30C33.8807 30 35 28.8807 35 27.5V10C35 8.61929 33.8807 7.5 32.5 7.5L7.5 7.5C6.11929 7.5 5 8.61929 5 10L5 27.5C5 28.8807 6.11929 30 7.5 30Z" stroke="#0271E1" stroke-width="2" stroke-linecap="round" stroke-linejoin="round"></path><path d="M25 35H15" stroke="#0271E1" stroke-width="2" stroke-linecap="round" stroke-linejoin="round"></path><path d="M25 18.75L17.5 13.75V23.75L25 18.75Z" stroke="#0271E1" stroke-width="2" stroke-linecap="round" stroke-linejoin="round"></path></symbol><symbol id="super-funds" width="40" height="40" viewBox="0 0 40 40" fill="none" xmlns="http://www.w3.org/2000/svg"><path d="M20.6892 29.802L28.5698 34.7948C29.5771 35.433 30.8278 34.4838 30.5289 33.3079L28.252 24.3513C28.1879 24.1018 28.1955 23.8393 28.2739 23.594C28.3523 23.3487 28.4984 23.1304 28.6954 22.9644L35.7621 17.0827C36.6907 16.3098 36.2114 14.7688 35.0184 14.6914L25.7897 14.0924C25.5411 14.0747 25.3027 13.9866 25.1022 13.8386C24.9017 13.6906 24.7474 13.4887 24.6572 13.2564L21.2153 4.58872C21.1217 4.34214 20.9554 4.12985 20.7383 3.98004C20.5212 3.83024 20.2637 3.75001 20 3.75001C19.7363 3.75001 19.4788 3.83024 19.2617 3.98004C19.0446 4.12985 18.8783 4.34214 18.7847 4.58872L15.3428 13.2564C15.2526 13.4887 15.0983 13.6906 14.8978 13.8386C14.6973 13.9866 14.4589 14.0747 14.2103 14.0924L4.98157 14.6914C3.78859 14.7688 3.30933 16.3098 4.23787 17.0827L11.3046 22.9644C11.5016 23.1304 11.6477 23.3487 11.7261 23.594C11.8045 23.8393 11.8121 24.1018 11.748 24.3513L9.63647 32.6576C9.27778 34.0686 10.7786 35.2076 11.9874 34.4418L19.3108 29.802C19.5167 29.6709 19.7558 29.6012 20 29.6012C20.2442 29.6012 20.4833 29.6709 20.6892 29.802V29.802Z" fill="#C3DDF8"></path><path d="M20.6892 29.802L28.5698 34.7948C29.5771 35.433 30.8278 34.4838 30.5289 33.3079L28.252 24.3513C28.1879 24.1018 28.1955 23.8393 28.2739 23.594C28.3523 23.3487 28.4984 23.1304 28.6954 22.9644L35.7621 17.0827C36.6907 16.3098 36.2114 14.7688 35.0184 14.6914L25.7897 14.0924C25.5411 14.0747 25.3027 13.9866 25.1022 13.8386C24.9017 13.6906 24.7474 13.4887 24.6572 13.2564L21.2153 4.58872C21.1217 4.34214 20.9554 4.12985 20.7383 3.98004C20.5212 3.83024 20.2637 3.75001 20 3.75001C19.7363 3.75001 19.4788 3.83024 19.2617 3.98004C19.0446 4.12985 18.8783 4.34214 18.7847 4.58872L15.3428 13.2564C15.2526 13.4887 15.0983 13.6906 14.8978 13.8386C14.6973 13.9866 14.4589 14.0747 14.2103 14.0924L4.98157 14.6914C3.78859 14.7688 3.30933 16.3098 4.23787 17.0827L11.3046 22.9644C11.5016 23.1304 11.6477 23.3487 11.7261 23.594C11.8045 23.8393 11.8121 24.1018 11.748 24.3513L9.63647 32.6576C9.27778 34.0686 10.7786 35.2076 11.9874 34.4418L19.3108 29.802C19.5167 29.6709 19.7558 29.6012 20 29.6012C20.2442 29.6012 20.4833 29.6709 20.6892 29.802V29.802Z" stroke="#0271E1" stroke-width="2" stroke-linecap="round" stroke-linejoin="round"></path></symbol><symbol id="car-insurance" width="40" height="40" viewBox="0 0 40 40" fill="none" xmlns="http://www.w3.org/2000/svg"><path d="M34.375 27.5V32.5C34.375 32.8315 34.2433 33.1495 34.0089 33.3839C33.7745 33.6183 33.4565 33.75 33.125 33.75H29.375C29.0435 33.75 28.7255 33.6183 28.4911 33.3839C28.2567 33.1495 28.125 32.8315 28.125 32.5V27.5H34.375Z" fill="#C3DDF8"></path><path d="M11.875 27.5V32.5C11.875 32.8315 11.7433 33.1495 11.5089 33.3839C11.2745 33.6183 10.9565 33.75 10.625 33.75H6.875C6.54348 33.75 6.22554 33.6183 5.99112 33.3839C5.7567 33.1495 5.625 32.8315 5.625 32.5V27.5H11.875Z" fill="#C3DDF8"></path><path d="M5.625 15L6.72168 7.32322C6.76424 7.02535 6.91281 6.75283 7.14012 6.55568C7.36743 6.35854 7.65822 6.25 7.95912 6.25H32.0409C32.3418 6.25 32.6326 6.35854 32.8599 6.55568C33.0872 6.75283 33.2358 7.02535 33.2783 7.32322L34.375 15H5.625Z" fill="#C3DDF8"></path><path d="M34.375 27.5V32.5C34.375 32.8315 34.2433 33.1495 34.0089 33.3839C33.7745 33.6183 33.4565 33.75 33.125 33.75H29.375C29.0435 33.75 28.7255 33.6183 28.4911 33.3839C28.2567 33.1495 28.125 32.8315 28.125 32.5V27.5" stroke="#0271E1" stroke-width="2" stroke-linecap="round" stroke-linejoin="round"></path><path d="M11.875 27.5V32.5C11.875 32.8315 11.7433 33.1495 11.5089 33.3839C11.2745 33.6183 10.9565 33.75 10.625 33.75H6.875C6.54348 33.75 6.22554 33.6183 5.99112 33.3839C5.7567 33.1495 5.625 32.8315 5.625 32.5V27.5" stroke="#0271E1" stroke-width="2" stroke-linecap="round" stroke-linejoin="round"></path><path d="M2.5 15H37.5" stroke="#0271E1" stroke-width="2" stroke-linecap="round" stroke-linejoin="round"></path><path d="M22.5 20V27.5" stroke="#0271E1" stroke-width="2" stroke-linecap="round" stroke-linejoin="round"></path><path d="M17.5 20V27.5" stroke="#0271E1" stroke-width="2" stroke-linecap="round" stroke-linejoin="round"></path><path d="M34.375 27.5H5.625V15L6.72168 7.32322C6.76424 7.02535 6.91281 6.75283 7.14012 6.55568C7.36743 6.35854 7.65822 6.25 7.95912 6.25H32.0409C32.3418 6.25 32.6326 6.35854 32.8599 6.55568C33.0872 6.75283 33.2358 7.02535 33.2783 7.32322L34.375 15V27.5Z" stroke="#0271E1" stroke-width="2" stroke-linecap="round" stroke-linejoin="round"></path><path d="M11.25 22.5C12.2855 22.5 13.125 21.6605 13.125 20.625C13.125 19.5895 12.2855 18.75 11.25 18.75C10.2145 18.75 9.375 19.5895 9.375 20.625C9.375 21.6605 10.2145 22.5 11.25 22.5Z" fill="#0271E1"></path><path d="M28.75 22.5C29.7855 22.5 30.625 21.6605 30.625 20.625C30.625 19.5895 29.7855 18.75 28.75 18.75C27.7145 18.75 26.875 19.5895 26.875 20.625C26.875 21.6605 27.7145 22.5 28.75 22.5Z" fill="#0271E1"></path></symbol><symbol viewBox="0 0 24 24" id="chevron-up" xmlns="http://www.w3.org/2000/svg"><path fill-rule="evenodd" d="M11.293 8.293a1 1 0 011.414 0l6 6a1 1 0 01-1.414 1.414L12 10.414l-5.293 5.293a1 1 0 01-1.414-1.414l6-6z" clip-rule="evenodd"></path></symbol><symbol viewBox="0 0 24 24" id="chevron-down" xmlns="http://www.w3.org/2000/svg"><path fill-rule="evenodd" d="M5.293 8.293a1 1 0 011.414 0L12 13.586l5.293-5.293a1 1 0 111.414 1.414l-6 6a1 1 0 01-1.414 0l-6-6a1 1 0 010-1.414z" clip-rule="evenodd"></path></symbol></svg>